<svg width="438" height="60" viewBox="0 0 438 60" fill="none" xmlns="http://www.w3.org/2000/svg">
<rect width="438" height="60" rx="30" fill="#FEFEFF"/>
<path opacity="0.45" d="M26.688 26.032V29.76H30.752V30.96H26.688V34.8H31.232V36H25.232V24.832H31.232V26.032H26.688ZM37.7071 27.072C38.7738 27.072 39.6378 27.3973 40.2991 28.048C40.9605 28.688 41.2911 29.616 41.2911 30.832V36H39.8511V31.04C39.8511 30.1653 39.6325 29.4987 39.1951 29.04C38.7578 28.5707 38.1605 28.336 37.4031 28.336C36.6351 28.336 36.0218 28.576 35.5631 29.056C35.1151 29.536 34.8911 30.2347 34.8911 31.152V36H33.4351V27.232H34.8911V28.48C35.1791 28.032 35.5685 27.6853 36.0591 27.44C36.5605 27.1947 37.1098 27.072 37.7071 27.072ZM45.4455 28.432V33.6C45.4455 34.0267 45.5362 34.3307 45.7175 34.512C45.8988 34.6827 46.2135 34.768 46.6615 34.768H47.7335V36H46.4215C45.6108 36 45.0028 35.8133 44.5975 35.44C44.1922 35.0667 43.9895 34.4533 43.9895 33.6V28.432H42.8535V27.232H43.9895V25.024H45.4455V27.232H47.7335V28.432H45.4455ZM57.4976 31.28C57.4976 31.5573 57.4816 31.8507 57.4496 32.16H50.4416C50.495 33.024 50.7883 33.7013 51.3216 34.192C51.8656 34.672 52.5216 34.912 53.2896 34.912C53.919 34.912 54.4416 34.768 54.8576 34.48C55.2843 34.1813 55.583 33.7867 55.7536 33.296H57.3216C57.087 34.1387 56.6176 34.8267 55.9136 35.36C55.2096 35.8827 54.335 36.144 53.2896 36.144C52.4576 36.144 51.711 35.9573 51.0496 35.584C50.399 35.2107 49.887 34.6827 49.5136 34C49.1403 33.3067 48.9536 32.5067 48.9536 31.6C48.9536 30.6933 49.135 29.8987 49.4976 29.216C49.8603 28.5333 50.367 28.0107 51.0176 27.648C51.679 27.2747 52.4363 27.088 53.2896 27.088C54.1216 27.088 54.8576 27.2693 55.4976 27.632C56.1376 27.9947 56.6283 28.496 56.9696 29.136C57.3216 29.7653 57.4976 30.48 57.4976 31.28ZM55.9936 30.976C55.9936 30.4213 55.871 29.9467 55.6256 29.552C55.3803 29.1467 55.0443 28.8427 54.6176 28.64C54.2016 28.4267 53.7376 28.32 53.2256 28.32C52.4896 28.32 51.8603 28.5547 51.3376 29.024C50.8256 29.4933 50.5323 30.144 50.4576 30.976H55.9936ZM60.8755 28.656C61.1315 28.1547 61.4942 27.7653 61.9635 27.488C62.4435 27.2107 63.0248 27.072 63.7075 27.072V28.576H63.3235C61.6915 28.576 60.8755 29.4613 60.8755 31.232V36H59.4195V27.232H60.8755V28.656ZM77.2059 27.232L71.9259 40.128H70.4219L72.1499 35.904L68.6139 27.232H70.2299L72.9819 34.336L75.7019 27.232H77.2059ZM82.4935 36.144C81.6722 36.144 80.9255 35.9573 80.2535 35.584C79.5922 35.2107 79.0695 34.6827 78.6855 34C78.3122 33.3067 78.1255 32.5067 78.1255 31.6C78.1255 30.704 78.3175 29.9147 78.7015 29.232C79.0962 28.5387 79.6295 28.0107 80.3015 27.648C80.9735 27.2747 81.7255 27.088 82.5575 27.088C83.3895 27.088 84.1415 27.2747 84.8135 27.648C85.4855 28.0107 86.0135 28.5333 86.3975 29.216C86.7922 29.8987 86.9895 30.6933 86.9895 31.6C86.9895 32.5067 86.7868 33.3067 86.3815 34C85.9868 34.6827 85.4482 35.2107 84.7655 35.584C84.0828 35.9573 83.3255 36.144 82.4935 36.144ZM82.4935 34.864C83.0162 34.864 83.5068 34.7413 83.9655 34.496C84.4242 34.2507 84.7922 33.8827 85.0695 33.392C85.3575 32.9013 85.5015 32.304 85.5015 31.6C85.5015 30.896 85.3628 30.2987 85.0855 29.808C84.8082 29.3173 84.4455 28.9547 83.9975 28.72C83.5495 28.4747 83.0642 28.352 82.5415 28.352C82.0082 28.352 81.5175 28.4747 81.0695 28.72C80.6322 28.9547 80.2802 29.3173 80.0135 29.808C79.7468 30.2987 79.6135 30.896 79.6135 31.6C79.6135 32.3147 79.7415 32.9173 79.9975 33.408C80.2642 33.8987 80.6162 34.2667 81.0535 34.512C81.4908 34.7467 81.9708 34.864 82.4935 34.864ZM96.6799 27.232V36H95.2239V34.704C94.9465 35.152 94.5572 35.504 94.0559 35.76C93.5652 36.0053 93.0212 36.128 92.4239 36.128C91.7412 36.128 91.1279 35.9893 90.5839 35.712C90.0399 35.424 89.6079 34.9973 89.2879 34.432C88.9785 33.8667 88.8239 33.1787 88.8239 32.368V27.232H90.2639V32.176C90.2639 33.04 90.4825 33.7067 90.9199 34.176C91.3572 34.6347 91.9545 34.864 92.7119 34.864C93.4905 34.864 94.1039 34.624 94.5519 34.144C94.9999 33.664 95.2239 32.9653 95.2239 32.048V27.232H96.6799ZM100.594 28.656C100.85 28.1547 101.213 27.7653 101.682 27.488C102.162 27.2107 102.744 27.072 103.426 27.072V28.576H103.042C101.41 28.576 100.594 29.4613 100.594 31.232V36H99.1383V27.232H100.594V28.656ZM117.373 31.28C117.373 31.5573 117.357 31.8507 117.325 32.16H110.317C110.37 33.024 110.663 33.7013 111.197 34.192C111.741 34.672 112.397 34.912 113.165 34.912C113.794 34.912 114.317 34.768 114.733 34.48C115.159 34.1813 115.458 33.7867 115.629 33.296H117.197C116.962 34.1387 116.493 34.8267 115.789 35.36C115.085 35.8827 114.21 36.144 113.165 36.144C112.333 36.144 111.586 35.9573 110.925 35.584C110.274 35.2107 109.762 34.6827 109.389 34C109.015 33.3067 108.829 32.5067 108.829 31.6C108.829 30.6933 109.01 29.8987 109.373 29.216C109.735 28.5333 110.242 28.0107 110.893 27.648C111.554 27.2747 112.311 27.088 113.165 27.088C113.997 27.088 114.733 27.2693 115.373 27.632C116.013 27.9947 116.503 28.496 116.845 29.136C117.197 29.7653 117.373 30.48 117.373 31.28ZM115.869 30.976C115.869 30.4213 115.746 29.9467 115.501 29.552C115.255 29.1467 114.919 28.8427 114.493 28.64C114.077 28.4267 113.613 28.32 113.101 28.32C112.365 28.32 111.735 28.5547 111.213 29.024C110.701 29.4933 110.407 30.144 110.333 30.976H115.869ZM129.839 27.072C130.521 27.072 131.129 27.216 131.663 27.504C132.196 27.7813 132.617 28.2027 132.927 28.768C133.236 29.3333 133.391 30.0213 133.391 30.832V36H131.951V31.04C131.951 30.1653 131.732 29.4987 131.295 29.04C130.868 28.5707 130.287 28.336 129.551 28.336C128.793 28.336 128.191 28.5813 127.743 29.072C127.295 29.552 127.071 30.2507 127.071 31.168V36H125.631V31.04C125.631 30.1653 125.412 29.4987 124.975 29.04C124.548 28.5707 123.967 28.336 123.231 28.336C122.473 28.336 121.871 28.5813 121.423 29.072C120.975 29.552 120.751 30.2507 120.751 31.168V36H119.295V27.232H120.751V28.496C121.039 28.0373 121.423 27.6853 121.903 27.44C122.393 27.1947 122.932 27.072 123.519 27.072C124.255 27.072 124.905 27.2373 125.471 27.568C126.036 27.8987 126.457 28.384 126.735 29.024C126.98 28.4053 127.385 27.9253 127.951 27.584C128.516 27.2427 129.145 27.072 129.839 27.072ZM135.235 31.584C135.235 30.688 135.416 29.904 135.779 29.232C136.142 28.5493 136.638 28.0213 137.267 27.648C137.907 27.2747 138.616 27.088 139.395 27.088C140.163 27.088 140.83 27.2533 141.395 27.584C141.96 27.9147 142.382 28.3307 142.659 28.832V27.232H144.131V36H142.659V34.368C142.371 34.88 141.939 35.3067 141.363 35.648C140.798 35.9787 140.136 36.144 139.379 36.144C138.6 36.144 137.896 35.952 137.267 35.568C136.638 35.184 136.142 34.6453 135.779 33.952C135.416 33.2587 135.235 32.4693 135.235 31.584ZM142.659 31.6C142.659 30.9387 142.526 30.3627 142.259 29.872C141.992 29.3813 141.63 29.008 141.171 28.752C140.723 28.4853 140.227 28.352 139.683 28.352C139.139 28.352 138.643 28.48 138.195 28.736C137.747 28.992 137.39 29.3653 137.123 29.856C136.856 30.3467 136.723 30.9227 136.723 31.584C136.723 32.256 136.856 32.8427 137.123 33.344C137.39 33.8347 137.747 34.2133 138.195 34.48C138.643 34.736 139.139 34.864 139.683 34.864C140.227 34.864 140.723 34.736 141.171 34.48C141.63 34.2133 141.992 33.8347 142.259 33.344C142.526 32.8427 142.659 32.2613 142.659 31.6ZM147.343 25.808C147.066 25.808 146.831 25.712 146.639 25.52C146.447 25.328 146.351 25.0933 146.351 24.816C146.351 24.5387 146.447 24.304 146.639 24.112C146.831 23.92 147.066 23.824 147.343 23.824C147.61 23.824 147.834 23.92 148.015 24.112C148.207 24.304 148.303 24.5387 148.303 24.816C148.303 25.0933 148.207 25.328 148.015 25.52C147.834 25.712 147.61 25.808 147.343 25.808ZM148.047 27.232V36H146.591V27.232H148.047ZM151.985 24.16V36H150.529V24.16H151.985Z" fill="black"/>
<rect x="291" width="147" height="60" rx="30" fill="#1F1F1F"/>
<path d="M324.88 28.192C324.624 27.7227 324.272 27.3653 323.824 27.12C323.376 26.8747 322.853 26.752 322.256 26.752C321.595 26.752 321.008 26.9013 320.496 27.2C319.984 27.4987 319.584 27.9253 319.296 28.48C319.008 29.0347 318.864 29.6747 318.864 30.4C318.864 31.1467 319.008 31.7973 319.296 32.352C319.595 32.9067 320.005 33.3333 320.528 33.632C321.051 33.9307 321.659 34.08 322.352 34.08C323.205 34.08 323.904 33.856 324.448 33.408C324.992 32.9493 325.349 32.3147 325.52 31.504H321.68V29.792H327.728V31.744C327.579 32.5227 327.259 33.2427 326.768 33.904C326.277 34.5653 325.643 35.0987 324.864 35.504C324.096 35.8987 323.232 36.096 322.272 36.096C321.195 36.096 320.219 35.856 319.344 35.376C318.48 34.8853 317.797 34.208 317.296 33.344C316.805 32.48 316.56 31.4987 316.56 30.4C316.56 29.3013 316.805 28.32 317.296 27.456C317.797 26.5813 318.48 25.904 319.344 25.424C320.219 24.9333 321.189 24.688 322.256 24.688C323.515 24.688 324.608 24.9973 325.536 25.616C326.464 26.224 327.104 27.0827 327.456 28.192H324.88ZM337.625 31.376C337.625 31.696 337.604 31.984 337.561 32.24H331.081C331.135 32.88 331.359 33.3813 331.753 33.744C332.148 34.1067 332.633 34.288 333.209 34.288C334.041 34.288 334.633 33.9307 334.985 33.216H337.401C337.145 34.0693 336.655 34.7733 335.929 35.328C335.204 35.872 334.313 36.144 333.257 36.144C332.404 36.144 331.636 35.9573 330.953 35.584C330.281 35.2 329.753 34.6613 329.369 33.968C328.996 33.2747 328.809 32.4747 328.809 31.568C328.809 30.6507 328.996 29.8453 329.369 29.152C329.743 28.4587 330.265 27.9253 330.937 27.552C331.609 27.1787 332.383 26.992 333.257 26.992C334.1 26.992 334.852 27.1733 335.513 27.536C336.185 27.8987 336.703 28.416 337.065 29.088C337.439 29.7493 337.625 30.512 337.625 31.376ZM335.305 30.736C335.295 30.16 335.087 29.7013 334.681 29.36C334.276 29.008 333.78 28.832 333.193 28.832C332.639 28.832 332.169 29.0027 331.785 29.344C331.412 29.6747 331.183 30.1387 331.097 30.736H335.305ZM341.868 28.976V33.264C341.868 33.5627 341.938 33.7813 342.076 33.92C342.226 34.048 342.471 34.112 342.812 34.112H343.852V36H342.444C340.556 36 339.612 35.0827 339.612 33.248V28.976H338.556V27.136H339.612V24.944H341.868V27.136H343.852V28.976H341.868ZM348.7 31.536C348.7 30.64 348.876 29.8453 349.228 29.152C349.591 28.4587 350.076 27.9253 350.684 27.552C351.303 27.1787 351.991 26.992 352.748 26.992C353.409 26.992 353.985 27.1253 354.476 27.392C354.977 27.6587 355.377 27.9947 355.676 28.4V27.136H357.932V36H355.676V34.704C355.388 35.12 354.988 35.4667 354.476 35.744C353.975 36.0107 353.393 36.144 352.732 36.144C351.985 36.144 351.303 35.952 350.684 35.568C350.076 35.184 349.591 34.6453 349.228 33.952C348.876 33.248 348.7 32.4427 348.7 31.536ZM355.676 31.568C355.676 31.024 355.569 30.56 355.356 30.176C355.143 29.7813 354.855 29.4827 354.492 29.28C354.129 29.0667 353.74 28.96 353.324 28.96C352.908 28.96 352.524 29.0613 352.172 29.264C351.82 29.4667 351.532 29.7653 351.308 30.16C351.095 30.544 350.988 31.0027 350.988 31.536C350.988 32.0693 351.095 32.5387 351.308 32.944C351.532 33.3387 351.82 33.6427 352.172 33.856C352.535 34.0693 352.919 34.176 353.324 34.176C353.74 34.176 354.129 34.0747 354.492 33.872C354.855 33.6587 355.143 33.36 355.356 32.976C355.569 32.5813 355.676 32.112 355.676 31.568ZM372.252 37.968L370.556 35.936C370.087 36.0533 369.607 36.112 369.116 36.112C368.071 36.112 367.111 35.8667 366.236 35.376C365.361 34.8853 364.668 34.208 364.156 33.344C363.644 32.4693 363.388 31.4827 363.388 30.384C363.388 29.296 363.644 28.32 364.156 27.456C364.668 26.5813 365.361 25.8987 366.236 25.408C367.111 24.9173 368.071 24.672 369.116 24.672C370.172 24.672 371.132 24.9173 371.996 25.408C372.871 25.8987 373.559 26.5813 374.06 27.456C374.572 28.32 374.828 29.296 374.828 30.384C374.828 31.376 374.615 32.2827 374.188 33.104C373.772 33.9147 373.201 34.576 372.476 35.088L375.036 37.968H372.252ZM365.692 30.384C365.692 31.1307 365.836 31.7867 366.124 32.352C366.412 32.9173 366.812 33.3547 367.324 33.664C367.847 33.9627 368.444 34.112 369.116 34.112C369.788 34.112 370.38 33.9627 370.892 33.664C371.404 33.3547 371.804 32.9173 372.092 32.352C372.38 31.7867 372.524 31.1307 372.524 30.384C372.524 29.6373 372.38 28.9867 372.092 28.432C371.804 27.8667 371.404 27.4347 370.892 27.136C370.38 26.8373 369.788 26.688 369.116 26.688C368.444 26.688 367.847 26.8373 367.324 27.136C366.812 27.4347 366.412 27.8667 366.124 28.432C365.836 28.9867 365.692 29.6373 365.692 30.384ZM384.894 27.136V36H382.638V34.88C382.35 35.264 381.971 35.568 381.502 35.792C381.043 36.0053 380.542 36.112 379.998 36.112C379.305 36.112 378.691 35.968 378.158 35.68C377.625 35.3813 377.203 34.9493 376.894 34.384C376.595 33.808 376.446 33.1253 376.446 32.336V27.136H378.686V32.016C378.686 32.72 378.862 33.264 379.214 33.648C379.566 34.0213 380.046 34.208 380.654 34.208C381.273 34.208 381.758 34.0213 382.11 33.648C382.462 33.264 382.638 32.72 382.638 32.016V27.136H384.894ZM391.04 36.144C390.187 36.144 389.419 35.9573 388.736 35.584C388.053 35.2 387.515 34.6613 387.12 33.968C386.736 33.2747 386.544 32.4747 386.544 31.568C386.544 30.6613 386.741 29.8613 387.136 29.168C387.541 28.4747 388.091 27.9413 388.784 27.568C389.477 27.184 390.251 26.992 391.104 26.992C391.957 26.992 392.731 27.184 393.424 27.568C394.117 27.9413 394.661 28.4747 395.056 29.168C395.461 29.8613 395.664 30.6613 395.664 31.568C395.664 32.4747 395.456 33.2747 395.04 33.968C394.635 34.6613 394.08 35.2 393.376 35.584C392.683 35.9573 391.904 36.144 391.04 36.144ZM391.04 34.192C391.445 34.192 391.824 34.096 392.176 33.904C392.539 33.7013 392.827 33.4027 393.04 33.008C393.253 32.6133 393.36 32.1333 393.36 31.568C393.36 30.7253 393.136 30.08 392.688 29.632C392.251 29.1733 391.712 28.944 391.072 28.944C390.432 28.944 389.893 29.1733 389.456 29.632C389.029 30.08 388.816 30.7253 388.816 31.568C388.816 32.4107 389.024 33.0613 389.44 33.52C389.867 33.968 390.4 34.192 391.04 34.192ZM399.915 28.976V33.264C399.915 33.5627 399.984 33.7813 400.123 33.92C400.272 34.048 400.518 34.112 400.859 34.112H401.899V36H400.491C398.603 36 397.659 35.0827 397.659 33.248V28.976H396.603V27.136H397.659V24.944H399.915V27.136H401.899V28.976H399.915ZM411.75 31.376C411.75 31.696 411.729 31.984 411.686 32.24H405.206C405.26 32.88 405.484 33.3813 405.878 33.744C406.273 34.1067 406.758 34.288 407.334 34.288C408.166 34.288 408.758 33.9307 409.11 33.216H411.526C411.27 34.0693 410.78 34.7733 410.054 35.328C409.329 35.872 408.438 36.144 407.382 36.144C406.529 36.144 405.761 35.9573 405.078 35.584C404.406 35.2 403.878 34.6613 403.494 33.968C403.121 33.2747 402.934 32.4747 402.934 31.568C402.934 30.6507 403.121 29.8453 403.494 29.152C403.868 28.4587 404.39 27.9253 405.062 27.552C405.734 27.1787 406.508 26.992 407.382 26.992C408.225 26.992 408.977 27.1733 409.638 27.536C410.31 27.8987 410.828 28.416 411.19 29.088C411.564 29.7493 411.75 30.512 411.75 31.376ZM409.43 30.736C409.42 30.16 409.212 29.7013 408.806 29.36C408.401 29.008 407.905 28.832 407.318 28.832C406.764 28.832 406.294 29.0027 405.91 29.344C405.537 29.6747 405.308 30.1387 405.222 30.736H409.43Z" fill="#FEFEFF"/>
</svg>
